# xmcd CD database file
#
# Track frame offsets:
#	150
#	22092
#	42040
#	57492
#	77515
#	113632
#	123935
#	159402
#	182967
#	198002
#	209825
#	222945
#
# Disc length: 3215 seconds
#
# Revision: 1
# Processed by: cddbd v1.5.2PL0 Copyright (c) Steve Scherf et al.
# Submitted via: NeoAudio 9.9.9
#
DISCID=a50c8d0c
DTITLE=Bullfrog Blues Machine, The - 1999 - Buckle-Up!
DYEAR=1900
DGENRE=Blues
TTITLE0=Doin' It Too
TTITLE1=Way To Go Johnny
TTITLE2=Buckle-Up!
TTITLE3=The Decision Is Yours
TTITLE4=Searching For The Blues
TTITLE5=Blues With A Feeling
TTITLE6=Spent The Night In A Chickenshack - Hello Old Friend
TTITLE7=No Excuse
TTITLE8=U.$. Blues
TTITLE9=Blues Alert
TTITLE10=You Don't Know It
TTITLE11=Feel So Good
EXTD=
EXTT0=
EXTT1=
EXTT2=
EXTT3=
EXTT4=
EXTT5=
EXTT6=
EXTT7=
EXTT8=
EXTT9=
EXTT10=
EXTT11=
PLAYORDER=
